<svg xmlns="http://www.w3.org/2000/svg" viewBox="0 0 1614.2 984.1" enable-background="new 0 0 1614.2 984.1"><style type="text/css">.st0{fill:#5C5D5F;} .st1{fill:#BBD437;} .st2{fill:#044D66;}</style><path d="M59.6 892.3c0 7.1-1.9 12.8-5.6 17.1-3.8 4.4-9.3 7.2-16.7 8.4l24.5 35.5H47.9l-22.2-35h-15v35H0v-85.6h29.8c9.6 0 17 2.3 22.1 6.9 5.1 4.8 7.7 10.7 7.7 17.7zM29 911c6.4 0 11.3-1.6 14.6-4.7 3.3-3.1 5-7.3 5-12.4 0-5.1-1.6-9.2-4.8-12.2-3.2-3-7.9-4.6-13.9-4.6h-19V911H29zM91.4 867.8H144v9.2h-41.9v28.7h39.4v9.1h-39.4V944H144v9.4H91.4v-85.6zM195.3 867.8h13.1l28.7 85.6h-11.2l-7.3-21.8h-34l-7.3 21.8H166l29.3-85.6zm-7.9 55.4h28.4L201.7 881l-14.3 42.2zM273.3 944h38.1v9.4h-48.8v-85.6h10.7V944zM385.6 867.8h52.6v9.2h-41.9v28.7h39.5v9.1h-39.5V944h41.9v9.4h-52.6v-85.6zM516 888.7c-1.5-8.3-7.7-12.5-18.4-12.5-5.7 0-10.1 1.2-13.2 3.7-3.1 2.5-4.6 5.5-4.6 9s1 6.1 2.9 8c1.9 1.8 5 3.4 9.3 4.8l17.8 6.1c6.1 2.1 10.9 4.9 14.5 8.6 3.6 3.6 5.4 8.7 5.4 15.3s-2.8 12.1-8.4 16.6c-5.6 4.5-13.2 6.7-22.6 6.7-9.4 0-17.2-2.4-23.2-7.1-6-4.8-9.1-11.4-9.3-20.1h10.5c0 5.6 2 9.9 5.9 12.9 3.9 3 9 4.5 15.2 4.5s11.1-1.4 14.8-4.1c3.6-2.8 5.4-6 5.4-9.8 0-3.8-1.1-6.7-3.3-8.9-2.2-2.2-5.5-4-9.9-5.4l-15.1-5.6c-7.1-2.4-12.4-5.2-16.1-8.4-3.6-3.3-5.4-8-5.4-14.3 0-6.3 2.5-11.6 7.6-15.8 5.1-4.2 12.2-6.3 21.4-6.3s16.2 2 21 6.1c4.9 4 7.6 9.5 8.4 16.3H516zM545.2 867.8h66.5v9.2h-27.9v76.3h-10.7V877h-27.9v-9.2zM650.9 867.8H664l28.7 85.6h-11.2l-7.3-21.8h-34l-7.3 21.8h-11.3l29.3-85.6zm-7.9 55.4h28.4L657.3 881 643 923.2zM699.7 867.8h66.5v9.2h-27.9v76.3h-10.7V877h-27.9v-9.2zM788.8 867.8h52.6v9.2h-41.9v28.7H839v9.1h-39.4V944h41.9v9.4h-52.6v-85.6zM970.6 888.7c-1.5-8.3-7.7-12.5-18.4-12.5-5.7 0-10.1 1.2-13.2 3.7-3.1 2.5-4.6 5.5-4.6 9s1 6.1 2.9 8c1.9 1.8 5 3.4 9.3 4.8l17.8 6.1c6.1 2.1 10.9 4.9 14.5 8.6 3.6 3.6 5.4 8.7 5.4 15.3s-2.8 12.1-8.4 16.6c-5.6 4.5-13.2 6.7-22.6 6.7-9.4 0-17.2-2.4-23.2-7.1-6-4.8-9.1-11.4-9.3-20.1h10.5c0 5.6 2 9.9 5.9 12.9 3.9 3 9 4.5 15.2 4.5s11.1-1.4 14.8-4.1c3.6-2.8 5.4-6 5.4-9.8 0-3.8-1.1-6.7-3.3-8.9-2.2-2.2-5.5-4-9.9-5.4l-15.1-5.6c-7.1-2.4-12.4-5.2-16.1-8.4-3.6-3.3-5.4-8-5.4-14.3 0-6.3 2.5-11.6 7.6-15.8 5.1-4.2 12.2-6.3 21.4-6.3s16.2 2 21 6.1c4.9 4 7.6 9.5 8.4 16.3h-10.6zM1042.9 866.3c11.1 0 20 3.8 26.9 11.4 6.8 7.6 10.3 18.6 10.3 33.1s-3.4 25.4-10.2 32.9c-6.8 7.5-15.8 11.2-26.9 11.2s-20.1-3.8-26.9-11.4c-6.8-7.6-10.1-18.5-10.1-32.9 0-14.4 3.4-25.4 10.1-33 6.7-7.5 15.7-11.3 26.8-11.3zm0 9.7c-8 0-14.3 3-18.9 9-4.6 6-6.9 14.6-6.9 25.8 0 11.2 2.3 19.8 6.9 25.6 4.6 5.8 10.9 8.7 18.9 8.7 8 0 14.3-2.9 19-8.7 4.7-5.8 7-14.3 7-25.6 0-11.2-2.3-19.9-7-25.8-4.7-6-11-9-19-9zM1106 867.8h52v9.2h-41.2v28.4h38.4v9.3h-38.4v38.6H1106v-85.5zM1175.3 867.8h66.5v9.2h-27.9v76.3h-10.7V877h-27.9v-9.2zM1267.4 867.8l20.8 71.1 21.1-62.3h7.2l20.9 62.3 23.9-71.1h11.8l-30.2 85.6h-11.3l-18.6-54.8-19.3 54.8h-11.3l-27.1-85.6h12.1zM1411.8 867.8h13.1l28.7 85.6h-11.2l-7.3-21.8h-34l-7.3 21.8h-11.3l29.3-85.6zm-7.9 55.4h28.4l-14.1-42.2-14.3 42.2zM1535.1 892.3c0 7.1-1.9 12.8-5.6 17.1-3.8 4.4-9.3 7.2-16.7 8.4l24.5 35.5h-13.9l-22.2-35h-15v35h-10.7v-85.6h29.8c9.6 0 17 2.3 22.1 6.9 5.2 4.8 7.7 10.7 7.7 17.7zm-30.6 18.7c6.4 0 11.3-1.6 14.6-4.7 3.3-3.1 5-7.3 5-12.4 0-5.1-1.6-9.2-4.8-12.2-3.2-3-7.9-4.6-13.9-4.6h-19V911h18.1zM1561.5 867.8h52.6v9.2h-41.9v28.7h39.4v9.1h-39.4V944h41.9v9.4h-52.6v-85.6z" class="st0"></path><path d="M1320.5 157.5c-93.9 0-171.5 39.6-221.4 103.8l-.3-.5c-16.9-21.5-36.9-40.2-59.6-55.6v542.3h121V441.3c0-97.5 63-170.2 160.4-170.2 57.1 0 102.2 25.1 129.9 65.4V190c-36.9-20.8-80.7-32.5-130-32.5z" class="st1"></path><path d="M1005.4 445.6v301.9H883.7V441.3c0-97.5-63-170.3-160.4-170.3s-160.4 72.8-160.4 170.3v306.3H442.5V441.3c0-97.5-63-170.3-160.4-170.3-57.6 0-103.1 22.7-130.7 63.7-19.6 28.5-30.4 64.6-30.4 105v307.8H0V203.8c22.7 15.4 39.7 34.1 56.6 55.6l2 2.5c50-64.2 128.9-105.8 222.8-105.8 49.3 0 93 12.7 129.9 33.6 38.1 21.3 68.8 52.4 90.7 90.7 0 0 .5.8.7 1.2.2-.4.4-.8.6-1.2 43.1-75.1 120.1-122.7 220-122.7 166.1-.2 282.1 125 282.1 287.9z" class="st2"></path><circle cx="1550" cy="93.4" r="64.2" class="st1"></circle><path d="M1486 340.9v-140c22.1 15 127.3 81 127.3 188.6l.3 45.6-.7 312c-31.6-15-51.1-33.2-67.6-54.2 0 0-.4-.9-.6-.7-2.2-2.9-4.4-5.8-6.6-8.8-11.1-15.6-20.6-32.5-28.4-50.6-1.6-3.6-3-7.3-4.4-11-1.4-3.6-2.7-7.3-3.9-11-3.7-11.1-6.8-22.6-9.2-34.4-4.2-20.4-6.4-41.6-6.4-63.7l.2-171.8z" class="st2"></path></svg>